<?xml version="1.0" encoding="UTF-8"?><svg id="Layer_1" xmlns="http://www.w3.org/2000/svg" viewBox="0 0 655.5 837"><path d="m640.91,308.74c-.1,65.78-4.67,133.46-31.77,194.35-14.53,32.67-22.04,56.46-22.04,92.14,0,17.84.18,33.93-2,49.02-7.45,97.96-122.09,175-254.5,174.99-.73,0-1.46,0-2.19-.01-1.16.01-2.33.02-3.5.02-132.41,0-247.05-77.04-254.5-175-2.18-15.09-2-31.18-2-49.02,0-35.68-7.51-59.47-22.05-92.14-27.09-60.89-31.66-128.57-31.76-194.35-.12-80.25,4.07-162.54,69.73-218.29,42.14-35.78,99.1-56.08,152.91-65.5,28.26-4.95,56.98-7.21,85.67-7.2,1.49,0,2.98.01,4.47.02,1.73-.02,3.48-.03,5.22-.03,28.68,0,57.4,2.26,85.67,7.21,53.81,9.42,110.77,29.72,152.9,65.5,65.66,55.75,69.86,138.04,69.74,218.29h0Z" fill="#fff"/><path d="m640.91,308.74c-.1,65.78-4.67,133.46-31.77,194.35-14.53,32.67-22.04,56.46-22.04,92.14,0,17.84.18,33.93-2,49.02-7.45,97.96-122.09,175-254.5,174.99-.73,0-1.46,0-2.19-.01-1.16.01-2.33.02-3.5.02-132.41,0-247.05-77.04-254.5-175-2.18-15.09-2-31.18-2-49.02,0-35.68-7.51-59.47-22.05-92.14-27.09-60.89-31.66-128.57-31.76-194.35-.12-80.25,4.07-162.54,69.73-218.29,42.14-35.78,99.1-56.08,152.91-65.5,28.26-4.95,56.98-7.21,85.67-7.2,1.49,0,2.98.01,4.47.02,1.73-.02,3.48-.03,5.22-.03,28.68,0,57.4,2.26,85.67,7.21,53.81,9.42,110.77,29.72,152.9,65.5,65.66,55.75,69.86,138.04,69.74,218.29h0Z" fill="#6d8b74"/><path d="m640.91,308.74c-.1,65.78-4.67,133.46-31.77,194.35-14.53,32.67-22.04,56.46-22.04,92.14,0,17.84.18,33.93-2,49.02-7.45,97.96-122.09,175-254.5,174.99-.73,0-1.46,0-2.19-.01-1.16.01-2.33.02-3.5.02-132.41,0-247.05-77.04-254.5-175-2.18-15.09-2-31.18-2-49.02,0-35.68-7.51-59.47-22.05-92.14-27.09-60.89-31.66-128.57-31.76-194.35-.12-80.25,4.07-162.54,69.73-218.29,42.14-35.78,99.1-56.08,152.91-65.5,28.26-4.95,56.98-7.21,85.67-7.2,1.49,0,2.98.01,4.47.02,1.73-.02,3.48-.03,5.22-.03,28.68,0,57.4,2.26,85.67,7.21,53.81,9.42,110.77,29.72,152.9,65.5,65.66,55.75,69.86,138.04,69.74,218.29h0Z" fill="none" stroke="#5f7161" stroke-width="14"/></svg>